# xmcd CD database file
#
# Track frame offsets:
#	150
#	79561
#	146222
#	196977
#	234031
#	264840
#
# Disc length: 4251 seconds
#
# Revision: 0
# Processed by: cddbd v1.5.2PL0 Copyright (c) Steve Scherf et al.
# Submitted via: CDex 1.70beta2
#
DISCID=42109906
DTITLE=Motion - Canton Bop
DYEAR=2003
DGENRE=Jazz
TTITLE0=and then suddenly during the siesta
TTITLE1=Sometimes it's nice with a ballad
TTITLE2=Mantra of relativity
TTITLE3=Taipei by night
TTITLE4=Still some time to go
TTITLE5=Your home is bigger than you think (Interstellar phrase)
EXTD=YEAR: 2003
EXTT0=
EXTT1=
EXTT2=
EXTT3=
EXTT4=
EXTT5=
PLAYORDER=
